<?xml version="1.0" encoding="UTF-8" standalone="no"?>
<!-- Created with Inkscape (http://www.inkscape.org/) -->

<svg
   width="13.534146mm"
   height="13.534139mm"
   viewBox="0 0 13.534146 13.534139"
   version="1.1"
   id="svg1"
   xml:space="preserve"
   inkscape:version="1.3.2 (091e20e, 2023-11-25, custom)"
   sodipodi:docname="Fightpad.svg"
   xmlns:inkscape="http://www.inkscape.org/namespaces/inkscape"
   xmlns:sodipodi="http://sodipodi.sourceforge.net/DTD/sodipodi-0.dtd"
   xmlns="http://www.w3.org/2000/svg"
   xmlns:svg="http://www.w3.org/2000/svg"><sodipodi:namedview
     id="namedview1"
     pagecolor="#505050"
     bordercolor="#eeeeee"
     borderopacity="1"
     inkscape:showpageshadow="0"
     inkscape:pageopacity="0"
     inkscape:pagecheckerboard="0"
     inkscape:deskcolor="#505050"
     inkscape:document-units="mm"
     inkscape:zoom="5.7941078"
     inkscape:cx="472.03126"
     inkscape:cy="662.65595"
     inkscape:window-width="1920"
     inkscape:window-height="1009"
     inkscape:window-x="-8"
     inkscape:window-y="-8"
     inkscape:window-maximized="1"
     inkscape:current-layer="layer1" /><defs
     id="defs1" /><g
     inkscape:groupmode="layer"
     id="layer2"
     inkscape:label="Idle Buttons"
     style="display:none"
     transform="translate(-107.19718,-107.12597)"><circle
       style="display:inline;fill:#13121b;fill-opacity:1;stroke-width:0.529167;stroke-linecap:round;stroke-linejoin:round"
       id="path1-8-4"
       cx="113.96426"
       cy="113.89303"
       r="8.0369005" /></g><g
     id="layer3"
     inkscape:label="Buttons"
     inkscape:groupmode="layer"
     style="display:inline"
     transform="translate(-107.19718,-107.12597)"><g
       id="g10"
       inkscape:label="L3"
       style="display:inline"
       inkscape:export-filename="Stickless-Fightpad-Gamepad-Viewer\Assets\Face_Buttons_Triggers_Bumpers\L3.svg"
       inkscape:export-xdpi="300"
       inkscape:export-ydpi="300"><path
         style="font-size:16.0738px;font-family:'Controller: Nintendo SNES';-inkscape-font-specification:'Controller: Nintendo SNES';fill:#ffffff;fill-opacity:1;stroke-width:0.529167;stroke-linecap:round;stroke-linejoin:round"
         d="m 113.96426,107.12596 c -1.86456,0 -3.55231,0.75547 -4.79,1.97708 -1.2216,1.23768 -1.97707,2.92543 -1.97707,4.78999 0,1.86456 0.75547,3.55231 1.97707,4.79 1.23769,1.2216 2.92544,1.97707 4.79,1.97707 1.86456,0 3.55231,-0.75547 4.78999,-1.97707 1.22161,-1.23769 1.97708,-2.92544 1.97708,-4.79 0,-1.86456 -0.75547,-3.55231 -1.97708,-4.78999 -1.23768,-1.22161 -2.92543,-1.97708 -4.78999,-1.97708 z m 4.30777,2.4593 c 1.1091,1.09301 1.7842,2.62003 1.7842,4.30777 0,1.68775 -0.6751,3.21476 -1.7842,4.30778 -1.09301,1.10909 -2.62003,1.78419 -4.30777,1.78419 -1.68775,0 -3.21476,-0.6751 -4.30778,-1.78419 -1.10909,-1.09302 -1.78419,-2.62003 -1.78419,-4.30778 0,-1.68774 0.6751,-3.21476 1.78419,-4.30777 1.09302,-1.1091 2.62003,-1.7842 4.30778,-1.7842 1.68774,0 3.21476,0.6751 4.30777,1.7842 z"
         id="text2-9-6-2-0"
         aria-label="b"
         sodipodi:nodetypes="scscscscscscscscsc" /><path
         d="m 109.423,116.85201 h 4.19501 v -1.0113 h -2.99643 v -4.90666 H 109.423 Z"
         id="text5-2-7"
         style="font-size:6.35px;font-family:'Controller: Microsoft Xbox One';-inkscape-font-specification:'Controller: Microsoft Xbox One';fill:#ffffff;fill-opacity:1;stroke-width:0.529167;stroke-linecap:round;stroke-linejoin:round"
         aria-label="{"
         sodipodi:nodetypes="ccccccc" /><path
         style="-inkscape-font-specification:'Yu Gothic Bold';fill:#ffffff;stroke:#ff0202;stroke-width:0;stroke-linecap:round;stroke-linejoin:round"
         d="m 98.138949,130.15582 q 0.210011,-0.77749 0.831109,-1.1707 0.531732,-0.33512 1.282412,-0.33512 1.00984,0 1.59519,0.56301 0.50046,0.47811 0.50046,1.19304 0,0.66578 -0.39769,1.09474 -0.35299,0.37534 -0.93834,0.47811 v 0.0626 q 0.75514,0.16086 1.13942,0.67025 0.33512,0.44236 0.33512,1.09027 0,0.99197 -0.69706,1.57285 -0.60322,0.50492 -1.5371,0.50492 -1.773928,0 -2.220761,-1.54604 l 1.121551,-0.33065 q 0.125113,0.55854 0.415554,0.78642 0.250227,0.20108 0.674716,0.20108 0.53173,0 0.81771,-0.353 0.25469,-0.31278 0.25469,-0.82664 0,-1.26454 -1.353902,-1.26454 h -0.531732 v -0.93388 h 0.48258 q 1.282414,0 1.282414,-1.09921 0,-0.50492 -0.29491,-0.75962 -0.25023,-0.21894 -0.66578,-0.21894 -0.406622,0 -0.665786,0.2681 -0.241289,0.25022 -0.303846,0.69259 z"
         id="text25-9"
         transform="scale(1.1613079,0.86109808)"
         aria-label="3" /></g></g></svg>
