<?xml version="1.0" encoding="UTF-8" standalone="no"?>
<!-- Created with Inkscape (http://www.inkscape.org/) -->

<svg
   width="13.534138mm"
   height="13.534139mm"
   viewBox="0 0 13.534138 13.534139"
   version="1.1"
   id="svg1"
   xml:space="preserve"
   inkscape:version="1.3.2 (091e20e, 2023-11-25, custom)"
   sodipodi:docname="Fightpad.svg"
   xmlns:inkscape="http://www.inkscape.org/namespaces/inkscape"
   xmlns:sodipodi="http://sodipodi.sourceforge.net/DTD/sodipodi-0.dtd"
   xmlns="http://www.w3.org/2000/svg"
   xmlns:svg="http://www.w3.org/2000/svg"><sodipodi:namedview
     id="namedview1"
     pagecolor="#505050"
     bordercolor="#eeeeee"
     borderopacity="1"
     inkscape:showpageshadow="0"
     inkscape:pageopacity="0"
     inkscape:pagecheckerboard="0"
     inkscape:deskcolor="#505050"
     inkscape:document-units="mm"
     inkscape:zoom="5.7941078"
     inkscape:cx="472.03126"
     inkscape:cy="662.65595"
     inkscape:window-width="1920"
     inkscape:window-height="1009"
     inkscape:window-x="-8"
     inkscape:window-y="-8"
     inkscape:window-maximized="1"
     inkscape:current-layer="layer1" /><defs
     id="defs1" /><g
     inkscape:groupmode="layer"
     id="layer2"
     inkscape:label="Idle Buttons"
     style="display:none"
     transform="translate(-141.82648,-118.81732)"><circle
       style="display:inline;fill:#13121b;fill-opacity:1;stroke-width:0.529167;stroke-linecap:round;stroke-linejoin:round"
       id="path1-9-4"
       cx="148.59355"
       cy="125.58439"
       r="8.0369005" /></g><g
     id="layer3"
     inkscape:label="Buttons"
     inkscape:groupmode="layer"
     style="display:inline"
     transform="translate(-141.82648,-118.81732)"><g
       id="g7"
       inkscape:label="RB"
       style="display:inline"><path
         style="font-size:16.0738px;font-family:'Controller: Nintendo SNES';-inkscape-font-specification:'Controller: Nintendo SNES';fill:#ffffff;fill-opacity:1;stroke-width:0.529167;stroke-linecap:round;stroke-linejoin:round"
         d="m 148.59356,118.81732 c -1.86456,0 -3.55231,0.75547 -4.79,1.97708 -1.2216,1.23768 -1.97707,2.92543 -1.97707,4.78999 0,1.86456 0.75547,3.55231 1.97707,4.79 1.23769,1.2216 2.92544,1.97707 4.79,1.97707 1.86456,0 3.55231,-0.75547 4.78999,-1.97707 1.22161,-1.23769 1.97708,-2.92544 1.97708,-4.79 0,-1.86456 -0.75547,-3.55231 -1.97708,-4.78999 -1.23768,-1.22161 -2.92543,-1.97708 -4.78999,-1.97708 z m 4.30777,2.4593 c 1.1091,1.09301 1.7842,2.62003 1.7842,4.30777 0,1.68775 -0.6751,3.21476 -1.7842,4.30778 -1.09301,1.10909 -2.62003,1.78419 -4.30777,1.78419 -1.68775,0 -3.21476,-0.6751 -4.30778,-1.78419 -1.10909,-1.09302 -1.78419,-2.62003 -1.78419,-4.30778 0,-1.68774 0.6751,-3.21476 1.78419,-4.30777 1.09302,-1.1091 2.62003,-1.7842 4.30778,-1.7842 1.68774,0 3.21476,0.6751 4.30777,1.7842 z"
         id="text2-9-6-9"
         aria-label="b"
         sodipodi:nodetypes="scscscscscscscscsc" /><path
         style="font-size:6.35px;font-family:'Controller: Microsoft Xbox One';-inkscape-font-specification:'Controller: Microsoft Xbox One';fill:#ffffff;fill-opacity:1;stroke-width:0.529167;stroke-linecap:round;stroke-linejoin:round"
         d="m 145.15345,129.40967 h 1.5397 V 126.21 h 0.31255 c 0.36069,0 0.62551,0.0227 0.79395,0.0962 0.14435,0.0481 0.31255,0.14436 0.45711,0.31258 0.14435,0.14432 0.40896,0.52926 0.81795,1.13072 l 1.10666,1.65996 h 1.85244 l -0.93827,-1.49157 c -0.36066,-0.60144 -0.64954,-1.01043 -0.89012,-1.25101 -0.19247,-0.2167 -0.48116,-0.43304 -0.81797,-0.6255 0.67362,-0.12004 1.17884,-0.3368 1.51564,-0.72172 0.33681,-0.36069 0.50522,-0.84204 0.50522,-1.41942 0,-0.45709 -0.12004,-0.86607 -0.33681,-1.20288 -0.21672,-0.36067 -0.52926,-0.60144 -0.89014,-0.74579 -0.36067,-0.12004 -0.96231,-0.19246 -1.78026,-0.19246 h -3.2478 z m 1.5397,-4.42661 v -1.92463 h 1.20289 c 0.6255,0 1.01042,0 1.1307,0.0227 0.24058,0.0226 0.43306,0.14434 0.5774,0.28869 0.14435,0.16859 0.2167,0.36068 0.2167,0.62549 0,0.24058 -0.048,0.43305 -0.16859,0.5774 -0.0962,0.14433 -0.24057,0.26481 -0.43303,0.33681 -0.16861,0.0481 -0.64954,0.0719 -1.37129,0.0719 z"
         id="text1-9"
         aria-label="}"
         sodipodi:nodetypes="cccscccccccccsccsccccsccscccc" /></g></g></svg>
