<?xml version="1.0" encoding="UTF-8" standalone="no"?>
<!-- Created with Inkscape (http://www.inkscape.org/) -->

<svg
   width="13.534138mm"
   height="13.534139mm"
   viewBox="0 0 13.534138 13.534139"
   version="1.1"
   id="svg1"
   xml:space="preserve"
   inkscape:version="1.3.2 (091e20e, 2023-11-25, custom)"
   sodipodi:docname="Fightpad.svg"
   xmlns:inkscape="http://www.inkscape.org/namespaces/inkscape"
   xmlns:sodipodi="http://sodipodi.sourceforge.net/DTD/sodipodi-0.dtd"
   xmlns="http://www.w3.org/2000/svg"
   xmlns:svg="http://www.w3.org/2000/svg"><sodipodi:namedview
     id="namedview1"
     pagecolor="#505050"
     bordercolor="#eeeeee"
     borderopacity="1"
     inkscape:showpageshadow="0"
     inkscape:pageopacity="0"
     inkscape:pagecheckerboard="0"
     inkscape:deskcolor="#505050"
     inkscape:document-units="mm"
     inkscape:zoom="5.7941078"
     inkscape:cx="472.03126"
     inkscape:cy="662.65595"
     inkscape:window-width="1920"
     inkscape:window-height="1009"
     inkscape:window-x="-8"
     inkscape:window-y="-8"
     inkscape:window-maximized="1"
     inkscape:current-layer="layer1" /><defs
     id="defs1" /><g
     inkscape:groupmode="layer"
     id="layer2"
     inkscape:label="Idle Buttons"
     style="display:none"
     transform="translate(-119.04715,-158.43911)"><circle
       style="display:inline;fill:#13121b;fill-opacity:1;stroke-width:0.529167;stroke-linecap:round;stroke-linejoin:round"
       id="path1-8-0-4-4-4"
       cx="125.81422"
       cy="165.20618"
       r="8.0369005" /></g><g
     id="layer3"
     inkscape:label="Buttons"
     inkscape:groupmode="layer"
     style="display:inline"
     transform="translate(-119.04715,-158.43911)"><g
       id="g6"
       inkscape:label="R3"
       style="display:inline"
       inkscape:export-filename="Stickless-Fightpad-Gamepad-Viewer\Assets\Face_Buttons_Triggers_Bumpers\R3.svg"
       inkscape:export-xdpi="300"
       inkscape:export-ydpi="300"><path
         style="font-size:16.0738px;font-family:'Controller: Nintendo SNES';-inkscape-font-specification:'Controller: Nintendo SNES';fill:#ffffff;fill-opacity:1;stroke-width:0.529167;stroke-linecap:round;stroke-linejoin:round"
         d="m 125.81422,158.43911 c -1.86456,0 -3.55231,0.75547 -4.79,1.97708 -1.2216,1.23768 -1.97707,2.92543 -1.97707,4.78999 0,1.86456 0.75547,3.55231 1.97707,4.79 1.23769,1.2216 2.92544,1.97707 4.79,1.97707 1.86456,0 3.55231,-0.75547 4.78999,-1.97707 1.22161,-1.23769 1.97708,-2.92544 1.97708,-4.79 0,-1.86456 -0.75547,-3.55231 -1.97708,-4.78999 -1.23768,-1.22161 -2.92543,-1.97708 -4.78999,-1.97708 z m 4.30777,2.4593 c 1.1091,1.09301 1.7842,2.62003 1.7842,4.30777 0,1.68775 -0.6751,3.21476 -1.7842,4.30778 -1.09301,1.10909 -2.62003,1.78419 -4.30777,1.78419 -1.68775,0 -3.21476,-0.6751 -4.30778,-1.78419 -1.10909,-1.09302 -1.78419,-2.62003 -1.78419,-4.30778 0,-1.68774 0.6751,-3.21476 1.78419,-4.30777 1.09302,-1.1091 2.62003,-1.7842 4.30778,-1.7842 1.68774,0 3.21476,0.6751 4.30777,1.7842 z"
         id="text2-9-6-2"
         aria-label="b"
         sodipodi:nodetypes="scscscscscscscscsc" /><path
         style="font-size:6.35px;font-family:'Controller: Microsoft Xbox One';-inkscape-font-specification:'Controller: Microsoft Xbox One';fill:#ffffff;fill-opacity:1;stroke-width:0.529167;stroke-linecap:round;stroke-linejoin:round"
         d="m 121.12911,168.06853 h 1.15214 v -2.39428 h 0.23388 c 0.26989,0 0.46805,0.017 0.5941,0.0721 0.10801,0.036 0.23388,0.10802 0.34204,0.2339 0.10801,0.10799 0.30602,0.39603 0.61206,0.84609 l 0.8281,1.24214 h 1.38616 l -0.70209,-1.11612 c -0.26987,-0.45006 -0.48604,-0.75611 -0.66606,-0.93612 -0.14402,-0.16216 -0.36005,-0.32404 -0.61208,-0.46805 0.50406,-0.0899 0.88211,-0.25203 1.13414,-0.54006 0.25203,-0.2699 0.37804,-0.63008 0.37804,-1.06213 0,-0.34204 -0.0899,-0.64807 -0.25203,-0.9001 -0.16217,-0.26989 -0.39605,-0.45005 -0.66608,-0.55807 -0.26988,-0.0899 -0.72008,-0.14401 -1.33215,-0.14401 H 121.129 Z m 1.15214,-3.31238 v -1.44017 h 0.9001 c 0.46806,0 0.75608,0 0.84609,0.017 0.18002,0.0169 0.32405,0.10801 0.43206,0.21602 0.10801,0.12616 0.16215,0.26989 0.16215,0.46805 0,0.18002 -0.0359,0.32405 -0.12615,0.43206 -0.0721,0.10799 -0.18003,0.19816 -0.32403,0.25202 -0.12616,0.036 -0.48604,0.0538 -1.02612,0.0538 z"
         id="text1-1-1"
         aria-label="}"
         sodipodi:nodetypes="cccscccccccccsccsccccsccscccc" /><path
         style="-inkscape-font-specification:'Yu Gothic Bold';fill:#ffffff;stroke:#ff0202;stroke-width:0;stroke-linecap:round;stroke-linejoin:round"
         d="m 108.57681,189.85225 q 0.19945,-0.7384 0.78932,-1.11184 0.50499,-0.31827 1.21792,-0.31827 0.95906,0 1.51498,0.5347 0.47529,0.45407 0.47529,1.13305 0,0.6323 -0.37769,1.03969 -0.33524,0.35647 -0.89116,0.45407 v 0.0594 q 0.71717,0.15277 1.08213,0.63654 0.31827,0.42012 0.31827,1.03545 0,0.94209 -0.66201,1.49376 -0.57289,0.47953 -1.45981,0.47953 -1.68472,0 -2.10908,-1.4683 l 1.06515,-0.31403 q 0.11882,0.53046 0.39466,0.74688 0.23764,0.19097 0.64078,0.19097 0.505,0 0.77659,-0.33525 0.24189,-0.29705 0.24189,-0.78507 0,-1.20095 -1.28582,-1.20095 h -0.505 v -0.88692 h 0.45832 q 1.21792,0 1.21792,-1.04393 0,-0.47953 -0.28008,-0.72142 -0.23764,-0.20794 -0.6323,-0.20794 -0.38617,0 -0.6323,0.25462 -0.22916,0.23764 -0.28857,0.65776 z"
         id="text25"
         transform="scale(1.1613079,0.86109808)"
         aria-label="3" /></g></g></svg>
