<?xml version="1.0" encoding="UTF-8" standalone="no"?>
<!-- Created with Inkscape (http://www.inkscape.org/) -->

<svg
   width="128.31752mm"
   height="80.268028mm"
   viewBox="0 0 128.31752 80.268028"
   version="1.1"
   id="svg1"
   xml:space="preserve"
   inkscape:version="1.3.2 (091e20e, 2023-11-25, custom)"
   sodipodi:docname="Fightpad.svg"
   xmlns:inkscape="http://www.inkscape.org/namespaces/inkscape"
   xmlns:sodipodi="http://sodipodi.sourceforge.net/DTD/sodipodi-0.dtd"
   xmlns="http://www.w3.org/2000/svg"
   xmlns:svg="http://www.w3.org/2000/svg"><sodipodi:namedview
     id="namedview1"
     pagecolor="#505050"
     bordercolor="#eeeeee"
     borderopacity="1"
     inkscape:showpageshadow="0"
     inkscape:pageopacity="0"
     inkscape:pagecheckerboard="0"
     inkscape:deskcolor="#505050"
     inkscape:document-units="mm"
     inkscape:zoom="5.7941078"
     inkscape:cx="472.03126"
     inkscape:cy="662.65595"
     inkscape:window-width="1920"
     inkscape:window-height="1009"
     inkscape:window-x="-8"
     inkscape:window-y="-8"
     inkscape:window-maximized="1"
     inkscape:current-layer="layer1" /><defs
     id="defs1" /><g
     inkscape:groupmode="layer"
     id="layer2"
     inkscape:label="Idle Buttons"
     transform="translate(-47.454373,-105.85613)"><circle
       style="display:inline;fill:#13121b;fill-opacity:1;stroke-width:0.529167;stroke-linecap:round;stroke-linejoin:round"
       id="path1"
       cx="109.41144"
       cy="152.90257"
       r="8.0369005"
       inkscape:export-filename="Idle.svg"
       inkscape:export-xdpi="300"
       inkscape:export-ydpi="300" /><circle
       style="display:inline;fill:#13121b;fill-opacity:1;stroke-width:0.529167;stroke-linecap:round;stroke-linejoin:round"
       id="path1-4"
       cx="128.57008"
       cy="145.30728"
       r="8.0369005" /><circle
       style="display:inline;fill:#13121b;fill-opacity:1;stroke-width:0.529167;stroke-linecap:round;stroke-linejoin:round"
       id="path1-9"
       cx="148.21103"
       cy="145.26593"
       r="8.0369005" /><circle
       style="display:inline;fill:#13121b;fill-opacity:1;stroke-width:0.529167;stroke-linecap:round;stroke-linejoin:round"
       id="path1-4-0"
       cx="167.735"
       cy="148.44739"
       r="8.0369005" /><circle
       style="display:inline;fill:#13121b;fill-opacity:1;stroke-width:0.529167;stroke-linecap:round;stroke-linejoin:round"
       id="path1-8"
       cx="111.43789"
       cy="133.03838"
       r="8.0369005" /><circle
       style="display:inline;fill:#13121b;fill-opacity:1;stroke-width:0.529167;stroke-linecap:round;stroke-linejoin:round"
       id="path1-8-0"
       cx="75.208786"
       cy="132.48642"
       r="8.0369005" /><circle
       style="display:inline;fill:#13121b;fill-opacity:1;stroke-width:0.529167;stroke-linecap:round;stroke-linejoin:round"
       id="path1-8-0-4"
       cx="92.51825"
       cy="141.05247"
       r="8.0369005" /><circle
       style="display:inline;fill:#13121b;fill-opacity:1;stroke-width:0.529167;stroke-linecap:round;stroke-linejoin:round"
       id="path1-8-0-4-4"
       cx="55.491276"
       cy="132.36151"
       r="8.0369005" /><circle
       style="display:inline;fill:#13121b;fill-opacity:1;stroke-width:0.529167;stroke-linecap:round;stroke-linejoin:round"
       id="path1-8-0-4-4-4"
       cx="125.81422"
       cy="165.20618"
       r="8.0369005" /><circle
       style="display:inline;fill:#13121b;fill-opacity:1;stroke-width:0.529167;stroke-linecap:round;stroke-linejoin:round"
       id="path1-8-4"
       cx="113.96426"
       cy="113.89303"
       r="8.0369005" /><circle
       style="display:inline;fill:#13121b;fill-opacity:1;stroke-width:0.529167;stroke-linecap:round;stroke-linejoin:round"
       id="path1-4-7"
       cx="129.31793"
       cy="125.26043"
       r="8.0369005" /><circle
       style="display:inline;fill:#13121b;fill-opacity:1;stroke-width:0.529167;stroke-linecap:round;stroke-linejoin:round"
       id="path1-9-4"
       cx="148.59355"
       cy="125.58439"
       r="8.0369005" /><circle
       style="display:inline;fill:#13121b;fill-opacity:1;stroke-width:0.529167;stroke-linecap:round;stroke-linejoin:round"
       id="path1-4-0-1"
       cx="167.56956"
       cy="129.13115"
       r="8.0369005" /><circle
       style="display:inline;fill:#13121b;fill-opacity:1;stroke-width:0.529167;stroke-linecap:round;stroke-linejoin:round"
       id="path2"
       cx="102.83579"
       cy="176.08118"
       r="10.042975" /></g><g
     id="layer3"
     inkscape:label="Buttons"
     inkscape:groupmode="layer"
     style="display:none"
     transform="translate(-47.454373,-105.85613)"><g
       id="g1"
       inkscape:label="A"><text
         xml:space="preserve"
         style="font-size:16.0738px;fill:#39b54a;fill-opacity:1;stroke-width:0.529167;stroke-linecap:round;stroke-linejoin:round"
         x="101.37453"
         y="157.7247"
         id="text2"><tspan
           sodipodi:role="line"
           id="tspan2"
           style="font-style:normal;font-variant:normal;font-weight:normal;font-stretch:normal;font-size:16.0738px;font-family:'Controller: Nintendo SNES';-inkscape-font-specification:'Controller: Nintendo SNES';fill:#39b54a;fill-opacity:1;stroke-width:0.529167"
           x="101.37453"
           y="157.7247">a</tspan></text></g><g
       id="g2"
       inkscape:label="X"><text
         xml:space="preserve"
         style="font-size:16.1549px;fill:#0071bc;fill-opacity:1;stroke-width:0.529168;stroke-linecap:round;stroke-linejoin:round"
         x="103.40099"
         y="137.88486"
         id="text2-5"><tspan
           sodipodi:role="line"
           id="tspan2-5"
           style="font-style:normal;font-variant:normal;font-weight:normal;font-stretch:normal;font-size:16.1549px;font-family:'Controller: Nintendo SNES';-inkscape-font-specification:'Controller: Nintendo SNES';fill:#0071bc;fill-opacity:1;stroke-width:0.529168"
           x="103.40099"
           y="137.88486">x</tspan></text></g><g
       id="g3"
       inkscape:label="Y"><text
         xml:space="preserve"
         style="font-size:16.0738px;fill:#fcee21;fill-opacity:1;stroke-width:0.529168;stroke-linecap:round;stroke-linejoin:round"
         x="121.28103"
         y="130.08257"
         id="text2-5-4"><tspan
           sodipodi:role="line"
           id="tspan2-5-4"
           style="font-style:normal;font-variant:normal;font-weight:normal;font-stretch:normal;font-size:16.0738px;font-family:'Controller: Nintendo SNES';-inkscape-font-specification:'Controller: Nintendo SNES';fill:#fcee21;fill-opacity:1;stroke-width:0.529168"
           x="121.28103"
           y="130.08257">y</tspan></text></g><g
       id="g4"
       inkscape:label="B"><text
         xml:space="preserve"
         style="font-size:16.0738px;fill:#b3252b;fill-opacity:1;stroke-width:0.529167;stroke-linecap:round;stroke-linejoin:round"
         x="120.53318"
         y="150.12943"
         id="text2-9"><tspan
           sodipodi:role="line"
           id="tspan2-3"
           style="font-style:normal;font-variant:normal;font-weight:normal;font-stretch:normal;font-size:16.0738px;font-family:'Controller: Nintendo SNES';-inkscape-font-specification:'Controller: Nintendo SNES';fill:#b3252b;fill-opacity:1;stroke-width:0.529167"
           x="120.53318"
           y="150.12943">b</tspan></text></g><g
       id="g5"
       inkscape:label="RT"><path
         style="font-size:16.0738px;font-family:'Controller: Nintendo SNES';-inkscape-font-specification:'Controller: Nintendo SNES';fill:#ffffff;fill-opacity:1;stroke-width:0.529167;stroke-linecap:round;stroke-linejoin:round"
         d="m 148.15255,138.49886 c -1.86456,0 -3.55231,0.75547 -4.79,1.97708 -1.2216,1.23768 -1.97707,2.92543 -1.97707,4.78999 0,1.86456 0.75547,3.55231 1.97707,4.79 1.23769,1.2216 2.92544,1.97707 4.79,1.97707 1.86456,0 3.55231,-0.75547 4.78999,-1.97707 1.22161,-1.23769 1.97708,-2.92544 1.97708,-4.79 0,-1.86456 -0.75547,-3.55231 -1.97708,-4.78999 -1.23768,-1.22161 -2.92543,-1.97708 -4.78999,-1.97708 z m 4.30777,2.4593 c 1.1091,1.09301 1.7842,2.62003 1.7842,4.30777 0,1.68775 -0.6751,3.21476 -1.7842,4.30778 -1.09301,1.10909 -2.62003,1.78419 -4.30777,1.78419 -1.68775,0 -3.21476,-0.6751 -4.30778,-1.78419 -1.10909,-1.09302 -1.78419,-2.62003 -1.78419,-4.30778 0,-1.68774 0.6751,-3.21476 1.78419,-4.30777 1.09302,-1.1091 2.62003,-1.7842 4.30778,-1.7842 1.68774,0 3.21476,0.6751 4.30777,1.7842 z"
         id="text2-9-6"
         aria-label="b"
         sodipodi:nodetypes="scscscscscscscscsc" /><path
         style="font-size:6.35px;font-family:'Controller: Microsoft Xbox One';-inkscape-font-specification:'Controller: Microsoft Xbox One';fill:#ffffff;fill-opacity:1;stroke-width:0.529167;stroke-linecap:round;stroke-linejoin:round"
         d="m 143.56511,148.22871 h 1.15214 v -2.39428 h 0.23388 c 0.26989,0 0.46805,0.017 0.5941,0.0721 0.10801,0.036 0.23388,0.10802 0.34204,0.2339 0.10801,0.10799 0.30602,0.39603 0.61206,0.84609 l 0.8281,1.24214 h 1.38616 l -0.70209,-1.11612 c -0.26987,-0.45006 -0.48604,-0.75611 -0.66606,-0.93612 -0.14402,-0.16216 -0.36005,-0.32404 -0.61208,-0.46805 0.50406,-0.0899 0.88211,-0.25203 1.13414,-0.54006 0.25203,-0.2699 0.37804,-0.63008 0.37804,-1.06213 0,-0.34204 -0.0899,-0.64807 -0.25203,-0.9001 -0.16217,-0.26989 -0.39605,-0.45005 -0.66608,-0.55807 -0.26988,-0.0899 -0.72008,-0.14401 -1.33215,-0.14401 H 143.565 Z m 1.15214,-3.31238 v -1.44017 h 0.9001 c 0.46806,0 0.75608,0 0.84609,0.017 0.18002,0.0169 0.32405,0.10801 0.43206,0.21602 0.10801,0.12616 0.16215,0.26989 0.16215,0.46805 0,0.18002 -0.0359,0.32405 -0.12615,0.43206 -0.0721,0.10799 -0.18003,0.19816 -0.32403,0.25202 -0.12616,0.036 -0.48604,0.0538 -1.02612,0.0538 z m 5.4952,3.31238 h 1.15214 v -4.75255 h 1.69218 v -0.97211 h -4.53651 v 0.97211 h 1.69219 z"
         id="text1-1"
         aria-label="}"
         sodipodi:nodetypes="cccscccccccccsccsccccsccsccccccccccccc" /></g><g
       id="g7"
       inkscape:label="RB"><path
         style="font-size:16.0738px;font-family:'Controller: Nintendo SNES';-inkscape-font-specification:'Controller: Nintendo SNES';fill:#ffffff;fill-opacity:1;stroke-width:0.529167;stroke-linecap:round;stroke-linejoin:round"
         d="m 148.59356,118.81732 c -1.86456,0 -3.55231,0.75547 -4.79,1.97708 -1.2216,1.23768 -1.97707,2.92543 -1.97707,4.78999 0,1.86456 0.75547,3.55231 1.97707,4.79 1.23769,1.2216 2.92544,1.97707 4.79,1.97707 1.86456,0 3.55231,-0.75547 4.78999,-1.97707 1.22161,-1.23769 1.97708,-2.92544 1.97708,-4.79 0,-1.86456 -0.75547,-3.55231 -1.97708,-4.78999 -1.23768,-1.22161 -2.92543,-1.97708 -4.78999,-1.97708 z m 4.30777,2.4593 c 1.1091,1.09301 1.7842,2.62003 1.7842,4.30777 0,1.68775 -0.6751,3.21476 -1.7842,4.30778 -1.09301,1.10909 -2.62003,1.78419 -4.30777,1.78419 -1.68775,0 -3.21476,-0.6751 -4.30778,-1.78419 -1.10909,-1.09302 -1.78419,-2.62003 -1.78419,-4.30778 0,-1.68774 0.6751,-3.21476 1.78419,-4.30777 1.09302,-1.1091 2.62003,-1.7842 4.30778,-1.7842 1.68774,0 3.21476,0.6751 4.30777,1.7842 z"
         id="text2-9-6-9"
         aria-label="b"
         sodipodi:nodetypes="scscscscscscscscsc" /><path
         style="font-size:6.35px;font-family:'Controller: Microsoft Xbox One';-inkscape-font-specification:'Controller: Microsoft Xbox One';fill:#ffffff;fill-opacity:1;stroke-width:0.529167;stroke-linecap:round;stroke-linejoin:round"
         d="m 145.15345,129.40967 h 1.5397 V 126.21 h 0.31255 c 0.36069,0 0.62551,0.0227 0.79395,0.0962 0.14435,0.0481 0.31255,0.14436 0.45711,0.31258 0.14435,0.14432 0.40896,0.52926 0.81795,1.13072 l 1.10666,1.65996 h 1.85244 l -0.93827,-1.49157 c -0.36066,-0.60144 -0.64954,-1.01043 -0.89012,-1.25101 -0.19247,-0.2167 -0.48116,-0.43304 -0.81797,-0.6255 0.67362,-0.12004 1.17884,-0.3368 1.51564,-0.72172 0.33681,-0.36069 0.50522,-0.84204 0.50522,-1.41942 0,-0.45709 -0.12004,-0.86607 -0.33681,-1.20288 -0.21672,-0.36067 -0.52926,-0.60144 -0.89014,-0.74579 -0.36067,-0.12004 -0.96231,-0.19246 -1.78026,-0.19246 h -3.2478 z m 1.5397,-4.42661 v -1.92463 h 1.20289 c 0.6255,0 1.01042,0 1.1307,0.0227 0.24058,0.0226 0.43306,0.14434 0.5774,0.28869 0.14435,0.16859 0.2167,0.36068 0.2167,0.62549 0,0.24058 -0.048,0.43305 -0.16859,0.5774 -0.0962,0.14433 -0.24057,0.26481 -0.43303,0.33681 -0.16861,0.0481 -0.64954,0.0719 -1.37129,0.0719 z"
         id="text1-9"
         aria-label="}"
         sodipodi:nodetypes="cccscccccccccsccsccccsccscccc" /></g><g
       id="g6"
       inkscape:label="R3"><path
         style="font-size:16.0738px;font-family:'Controller: Nintendo SNES';-inkscape-font-specification:'Controller: Nintendo SNES';fill:#ffffff;fill-opacity:1;stroke-width:0.529167;stroke-linecap:round;stroke-linejoin:round"
         d="m 125.81422,158.43911 c -1.86456,0 -3.55231,0.75547 -4.79,1.97708 -1.2216,1.23768 -1.97707,2.92543 -1.97707,4.78999 0,1.86456 0.75547,3.55231 1.97707,4.79 1.23769,1.2216 2.92544,1.97707 4.79,1.97707 1.86456,0 3.55231,-0.75547 4.78999,-1.97707 1.22161,-1.23769 1.97708,-2.92544 1.97708,-4.79 0,-1.86456 -0.75547,-3.55231 -1.97708,-4.78999 -1.23768,-1.22161 -2.92543,-1.97708 -4.78999,-1.97708 z m 4.30777,2.4593 c 1.1091,1.09301 1.7842,2.62003 1.7842,4.30777 0,1.68775 -0.6751,3.21476 -1.7842,4.30778 -1.09301,1.10909 -2.62003,1.78419 -4.30777,1.78419 -1.68775,0 -3.21476,-0.6751 -4.30778,-1.78419 -1.10909,-1.09302 -1.78419,-2.62003 -1.78419,-4.30778 0,-1.68774 0.6751,-3.21476 1.78419,-4.30777 1.09302,-1.1091 2.62003,-1.7842 4.30778,-1.7842 1.68774,0 3.21476,0.6751 4.30777,1.7842 z"
         id="text2-9-6-2"
         aria-label="b"
         sodipodi:nodetypes="scscscscscscscscsc" /><path
         style="font-size:6.35px;font-family:'Controller: Microsoft Xbox One';-inkscape-font-specification:'Controller: Microsoft Xbox One';fill:#ffffff;fill-opacity:1;stroke-width:0.529167;stroke-linecap:round;stroke-linejoin:round"
         d="m 121.12911,168.06853 h 1.15214 v -2.39428 h 0.23388 c 0.26989,0 0.46805,0.017 0.5941,0.0721 0.10801,0.036 0.23388,0.10802 0.34204,0.2339 0.10801,0.10799 0.30602,0.39603 0.61206,0.84609 l 0.8281,1.24214 h 1.38616 l -0.70209,-1.11612 c -0.26987,-0.45006 -0.48604,-0.75611 -0.66606,-0.93612 -0.14402,-0.16216 -0.36005,-0.32404 -0.61208,-0.46805 0.50406,-0.0899 0.88211,-0.25203 1.13414,-0.54006 0.25203,-0.2699 0.37804,-0.63008 0.37804,-1.06213 0,-0.34204 -0.0899,-0.64807 -0.25203,-0.9001 -0.16217,-0.26989 -0.39605,-0.45005 -0.66608,-0.55807 -0.26988,-0.0899 -0.72008,-0.14401 -1.33215,-0.14401 H 121.129 Z m 1.15214,-3.31238 v -1.44017 h 0.9001 c 0.46806,0 0.75608,0 0.84609,0.017 0.18002,0.0169 0.32405,0.10801 0.43206,0.21602 0.10801,0.12616 0.16215,0.26989 0.16215,0.46805 0,0.18002 -0.0359,0.32405 -0.12615,0.43206 -0.0721,0.10799 -0.18003,0.19816 -0.32403,0.25202 -0.12616,0.036 -0.48604,0.0538 -1.02612,0.0538 z"
         id="text1-1-1"
         aria-label="}"
         sodipodi:nodetypes="cccscccccccccsccsccccsccscccc" /><text
         xml:space="preserve"
         style="font-style:normal;font-variant:normal;font-weight:bold;font-stretch:condensed;font-size:8.4625px;font-family:'Helvetica Neue';-inkscape-font-specification:'Helvetica Neue Bold Condensed';fill:#ffffff;fill-opacity:1;stroke:#ff0202;stroke-width:0;stroke-linecap:round;stroke-linejoin:round;stroke-dasharray:none;stroke-opacity:1"
         x="108.21654"
         y="195.06174"
         id="text25"
         transform="scale(1.1613079,0.86109807)"><tspan
           sodipodi:role="line"
           id="tspan25"
           style="font-style:normal;font-variant:normal;font-weight:bold;font-stretch:normal;font-family:'Yu Gothic';-inkscape-font-specification:'Yu Gothic Bold';fill:#ffffff;fill-opacity:1;stroke-width:0;stroke-dasharray:none"
           x="108.21654"
           y="195.06174">3</tspan></text></g><g
       id="g8"
       inkscape:label="LT"><path
         style="font-size:16.0738px;font-family:'Controller: Nintendo SNES';-inkscape-font-specification:'Controller: Nintendo SNES';fill:#ffffff;fill-opacity:1;stroke-width:0.529167;stroke-linecap:round;stroke-linejoin:round"
         d="m 167.53462,141.68032 c -1.86456,0 -3.55231,0.75547 -4.79,1.97708 -1.2216,1.23768 -1.97707,2.92543 -1.97707,4.78999 0,1.86456 0.75547,3.55231 1.97707,4.79 1.23769,1.2216 2.92544,1.97707 4.79,1.97707 1.86456,0 3.55231,-0.75547 4.78999,-1.97707 1.22161,-1.23769 1.97708,-2.92544 1.97708,-4.79 0,-1.86456 -0.75547,-3.55231 -1.97708,-4.78999 -1.23768,-1.22161 -2.92543,-1.97708 -4.78999,-1.97708 z m 4.30777,2.4593 c 1.1091,1.09301 1.7842,2.62003 1.7842,4.30777 0,1.68775 -0.6751,3.21476 -1.7842,4.30778 -1.09301,1.10909 -2.62003,1.78419 -4.30777,1.78419 -1.68775,0 -3.21476,-0.6751 -4.30778,-1.78419 -1.10909,-1.09302 -1.78419,-2.62003 -1.78419,-4.30778 0,-1.68774 0.6751,-3.21476 1.78419,-4.30777 1.09302,-1.1091 2.62003,-1.7842 4.30778,-1.7842 1.68774,0 3.21476,0.6751 4.30777,1.7842 z"
         id="text2-9-6-6"
         aria-label="b"
         sodipodi:nodetypes="scscscscscscscscsc" /><path
         d="m 163.39888,151.40637 h 4.16863 v -1.00494 h -2.97759 v -4.8758 h -1.19104 z m 5.73187,0 h 1.19103 v -4.91303 h 1.74934 v -1.00493 h -4.68971 v 1.00493 h 1.74934 z"
         id="text5"
         style="font-size:6.35px;font-family:'Controller: Microsoft Xbox One';-inkscape-font-specification:'Controller: Microsoft Xbox One';fill:#ffffff;fill-opacity:1;stroke-width:0.529167;stroke-linecap:round;stroke-linejoin:round"
         aria-label="{"
         sodipodi:nodetypes="cccccccccccccccc" /></g><g
       id="g9"
       inkscape:label="LB"><path
         style="font-size:16.0738px;font-family:'Controller: Nintendo SNES';-inkscape-font-specification:'Controller: Nintendo SNES';fill:#ffffff;fill-opacity:1;stroke-width:0.529167;stroke-linecap:round;stroke-linejoin:round"
         d="m 167.56956,122.36408 c -1.86456,0 -3.55231,0.75547 -4.79,1.97708 -1.2216,1.23768 -1.97707,2.92543 -1.97707,4.78999 0,1.86456 0.75547,3.55231 1.97707,4.79 1.23769,1.2216 2.92544,1.97707 4.79,1.97707 1.86456,0 3.55231,-0.75547 4.78999,-1.97707 1.22161,-1.23769 1.97708,-2.92544 1.97708,-4.79 0,-1.86456 -0.75547,-3.55231 -1.97708,-4.78999 -1.23768,-1.22161 -2.92543,-1.97708 -4.78999,-1.97708 z m 4.30777,2.4593 c 1.1091,1.09301 1.7842,2.62003 1.7842,4.30777 0,1.68775 -0.6751,3.21476 -1.7842,4.30778 -1.09301,1.10909 -2.62003,1.78419 -4.30777,1.78419 -1.68775,0 -3.21476,-0.6751 -4.30778,-1.78419 -1.10909,-1.09302 -1.78419,-2.62003 -1.78419,-4.30778 0,-1.68774 0.6751,-3.21476 1.78419,-4.30777 1.09302,-1.1091 2.62003,-1.7842 4.30778,-1.7842 1.68774,0 3.21476,0.6751 4.30777,1.7842 z"
         id="text2-9-6-9-8"
         aria-label="b"
         sodipodi:nodetypes="scscscscscscscscsc" /><path
         d="m 164.67,133.3631 h 5.99973 v -1.44637 h -4.28552 V 124.8992 H 164.67 Z"
         id="text5-2"
         style="font-size:6.35px;font-family:'Controller: Microsoft Xbox One';-inkscape-font-specification:'Controller: Microsoft Xbox One';fill:#ffffff;fill-opacity:1;stroke-width:0.529167;stroke-linecap:round;stroke-linejoin:round"
         aria-label="{"
         sodipodi:nodetypes="ccccccc" /></g><g
       id="g10"
       inkscape:label="L3"><path
         style="font-size:16.0738px;font-family:'Controller: Nintendo SNES';-inkscape-font-specification:'Controller: Nintendo SNES';fill:#ffffff;fill-opacity:1;stroke-width:0.529167;stroke-linecap:round;stroke-linejoin:round"
         d="m 113.96426,107.12596 c -1.86456,0 -3.55231,0.75547 -4.79,1.97708 -1.2216,1.23768 -1.97707,2.92543 -1.97707,4.78999 0,1.86456 0.75547,3.55231 1.97707,4.79 1.23769,1.2216 2.92544,1.97707 4.79,1.97707 1.86456,0 3.55231,-0.75547 4.78999,-1.97707 1.22161,-1.23769 1.97708,-2.92544 1.97708,-4.79 0,-1.86456 -0.75547,-3.55231 -1.97708,-4.78999 -1.23768,-1.22161 -2.92543,-1.97708 -4.78999,-1.97708 z m 4.30777,2.4593 c 1.1091,1.09301 1.7842,2.62003 1.7842,4.30777 0,1.68775 -0.6751,3.21476 -1.7842,4.30778 -1.09301,1.10909 -2.62003,1.78419 -4.30777,1.78419 -1.68775,0 -3.21476,-0.6751 -4.30778,-1.78419 -1.10909,-1.09302 -1.78419,-2.62003 -1.78419,-4.30778 0,-1.68774 0.6751,-3.21476 1.78419,-4.30777 1.09302,-1.1091 2.62003,-1.7842 4.30778,-1.7842 1.68774,0 3.21476,0.6751 4.30777,1.7842 z"
         id="text2-9-6-2-0"
         aria-label="b"
         sodipodi:nodetypes="scscscscscscscscsc" /><path
         d="m 109.423,116.85201 h 4.19501 v -1.0113 h -2.99643 v -4.90666 H 109.423 Z"
         id="text5-2-7"
         style="font-size:6.35px;font-family:'Controller: Microsoft Xbox One';-inkscape-font-specification:'Controller: Microsoft Xbox One';fill:#ffffff;fill-opacity:1;stroke-width:0.529167;stroke-linecap:round;stroke-linejoin:round"
         aria-label="{"
         sodipodi:nodetypes="ccccccc" /><text
         xml:space="preserve"
         style="font-style:normal;font-variant:normal;font-weight:bold;font-stretch:condensed;font-size:8.74728px;font-family:'Helvetica Neue';-inkscape-font-specification:'Helvetica Neue Bold Condensed';fill:#ffffff;fill-opacity:1;stroke:#ff0202;stroke-width:0;stroke-linecap:round;stroke-linejoin:round;stroke-dasharray:none;stroke-opacity:1"
         x="97.719284"
         y="135.57927"
         id="text25-9"
         transform="scale(1.1613079,0.86109807)"><tspan
           sodipodi:role="line"
           id="tspan25-9"
           style="font-style:normal;font-variant:normal;font-weight:bold;font-stretch:normal;font-family:'Yu Gothic';-inkscape-font-specification:'Yu Gothic Bold';fill:#ffffff;fill-opacity:1;stroke-width:0;stroke-dasharray:none"
           x="97.719284"
           y="135.57927">3</tspan></text></g></g><g
     inkscape:groupmode="layer"
     id="layer4"
     inkscape:label="D-Pad"
     style="display:none"
     transform="translate(-47.454373,-105.85613)"><path
       sodipodi:type="star"
       style="fill:#ffffff;fill-opacity:0.948171;stroke-width:0.529167;stroke-linecap:round;stroke-linejoin:round"
       id="path12"
       inkscape:flatsided="false"
       sodipodi:sides="3"
       sodipodi:cx="127.12915"
       sodipodi:cy="264.00375"
       sodipodi:r1="3.2033441"
       sodipodi:r2="5.571033"
       sodipodi:arg1="0"
       sodipodi:arg2="1.0471976"
       inkscape:rounded="0.1"
       inkscape:randomized="0"
       d="m 130.33249,264.00375 c 0,0.48428 0.002,4.58252 -0.41782,4.82466 -0.41939,0.24214 -3.9678,-1.80834 -4.38719,-2.05048 -0.41939,-0.24213 -3.96936,-2.28991 -3.96936,-2.77418 0,-0.48427 3.54997,-2.53204 3.96936,-2.77417 0.41939,-0.24214 3.9678,-2.29262 4.38719,-2.05048 0.41939,0.24213 0.41782,4.34038 0.41782,4.82465 z"
       inkscape:transform-center-x="-1.9498669"
       inkscape:transform-center-y="1.9298596"
       transform="rotate(60,216.18268,172.34643)"
       inkscape:label="Right" /><path
       sodipodi:type="star"
       style="fill:#ffffff;fill-opacity:1;stroke-width:0.529167;stroke-linecap:round;stroke-linejoin:round"
       id="path12-9"
       inkscape:flatsided="false"
       sodipodi:sides="3"
       sodipodi:cx="127.12915"
       sodipodi:cy="264.00375"
       sodipodi:r1="3.2033441"
       sodipodi:r2="5.571033"
       sodipodi:arg1="0"
       sodipodi:arg2="1.0471976"
       inkscape:rounded="0.1"
       inkscape:randomized="0"
       d="m 130.33249,264.00375 c 0,0.48428 0.002,4.58252 -0.41782,4.82466 -0.41939,0.24214 -3.9678,-1.80834 -4.38719,-2.05048 -0.41939,-0.24213 -3.96936,-2.28991 -3.96936,-2.77418 0,-0.48427 3.54997,-2.53204 3.96936,-2.77417 0.41939,-0.24214 3.9678,-2.29262 4.38719,-2.05048 0.41939,0.24213 0.41782,4.34038 0.41782,4.82465 z"
       inkscape:transform-center-x="1.9498634"
       inkscape:transform-center-y="-1.9298524"
       transform="rotate(-120,53.37113,218.82648)"
       inkscape:label="Left" /><path
       sodipodi:type="star"
       style="fill:#ffffff;fill-opacity:1;stroke-width:0.529167;stroke-linecap:round;stroke-linejoin:round"
       id="path12-9-7"
       inkscape:flatsided="false"
       sodipodi:sides="3"
       sodipodi:cx="127.12915"
       sodipodi:cy="264.00375"
       sodipodi:r1="3.2033441"
       sodipodi:r2="5.571033"
       sodipodi:arg1="0"
       sodipodi:arg2="1.0471976"
       inkscape:rounded="0.1"
       inkscape:randomized="0"
       d="m 130.33249,264.00375 c 0,0.48428 0.002,4.58252 -0.41782,4.82466 -0.41939,0.24214 -3.9678,-1.80834 -4.38719,-2.05048 -0.41939,-0.24213 -3.96936,-2.28991 -3.96936,-2.77418 0,-0.48427 3.54997,-2.53204 3.96936,-2.77417 0.41939,-0.24214 3.9678,-2.29262 4.38719,-2.05048 0.41939,0.24213 0.41782,4.34038 0.41782,4.82465 z"
       inkscape:transform-center-x="1.9298608"
       inkscape:transform-center-y="1.9498601"
       transform="rotate(150,118.87666,190.96173)"
       inkscape:label="Down" /><path
       sodipodi:type="star"
       style="fill:#ffffff;fill-opacity:1;stroke-width:0.423466;stroke-linecap:round;stroke-linejoin:round"
       id="path12-8-1-6"
       inkscape:flatsided="false"
       sodipodi:sides="3"
       sodipodi:cx="127.12915"
       sodipodi:cy="264.00375"
       sodipodi:r1="3.2033441"
       sodipodi:r2="5.571033"
       sodipodi:arg1="0"
       sodipodi:arg2="1.0471976"
       inkscape:rounded="0.1"
       inkscape:randomized="0"
       d="m 130.33249,264.00375 c 0,0.48428 0.002,4.58252 -0.41782,4.82466 -0.41939,0.24214 -3.9678,-1.80834 -4.38719,-2.05048 -0.41939,-0.24213 -3.96936,-2.28991 -3.96936,-2.77418 0,-0.48427 3.54997,-2.53204 3.96936,-2.77417 0.41939,-0.24214 3.9678,-2.29262 4.38719,-2.05048 0.41939,0.24213 0.41782,4.34038 0.41782,4.82465 z"
       inkscape:transform-center-x="-2.4115604"
       inkscape:transform-center-y="-2.4365656"
       transform="matrix(1.0821923,-0.62480402,0.62480402,1.0821923,-199.693,-29.240676)"
       inkscape:label="Up" /></g></svg>
